<svg width="140" height="36" viewBox="0 0 140 36" fill="none" xmlns="http://www.w3.org/2000/svg" role="img" aria-label="BEXO Logo">
  <!-- BEXO Geometric Beacon Mark -->
  <g transform="translate(2, 4)">
    <!-- Outer Octagonal Shield / Base Block -->
    <rect x="0" y="0" width="28" height="28" rx="7" fill="#0D0F12" />
    <!-- Dynamic 'B' & Level-Up Beacon Paths -->
    <path d="M7 6.5C7 5.67 7.67 5 8.5 5H15.5C18.54 5 21 7.46 21 10.5C21 12.3 20.13 13.9 18.8 14.9C20.5 15.95 21.5 17.85 21.5 20C21.5 23.04 19.04 25.5 16 25.5H8.5C7.67 25.5 7 24.83 7 24V6.5Z" fill="#1C2026"/>
    <!-- Bold Linear Facets -->
    <path d="M10.5 8.5H15C16.38 8.5 17.5 9.62 17.5 11C17.5 12.38 16.38 13.5 15 13.5H10.5V8.5Z" fill="#F4F4F0"/>
    <path d="M10.5 15.5H15.5C17.16 15.5 18.5 16.84 18.5 18.5C18.5 20.16 17.16 21.5 15.5 21.5H10.5V15.5Z" fill="#F4F4F0"/>
    <!-- Signature Lime Beacon Core -->
    <circle cx="21" cy="7" r="3.5" fill="#C8FF3D" stroke="#0D0F12" stroke-width="1.5"/>
    <circle cx="21" cy="7" r="1.5" fill="#0D0F12"/>
  </g>

  <!-- Wordmark 'BEXO' -->
  <g transform="translate(38, 26)">
    <text font-family="system-ui, -apple-system, BlinkMacSystemFont, 'Geist', 'Inter', sans-serif" font-size="22" font-weight="900" letter-spacing="-0.04em" fill="currentColor">
      BEXO
    </text>
    <!-- Accent Dot -->
    <circle cx="68.5" cy="-5" r="3.2" fill="#C8FF3D"/>
  </g>
</svg>
